<?xml version="1.0" encoding="utf-8"?>
<!-- Generator: Adobe Illustrator 16.0.0, SVG Export Plug-In . SVG Version: 6.00 Build 0)  -->
<!DOCTYPE svg PUBLIC "-//W3C//DTD SVG 1.1//EN" "http://www.w3.org/Graphics/SVG/1.1/DTD/svg11.dtd">
<svg version="1.1" id="Layer_1" xmlns="http://www.w3.org/2000/svg" xmlns:xlink="http://www.w3.org/1999/xlink" x="0px" y="0px"
	 width="200px" height="200px" viewBox="0 0 200 200" enable-background="new 0 0 200 200" xml:space="preserve">
<path fill="#FFFFFF" d="M100,6C48.086,6,6,48.084,6,100.001C6,151.916,48.086,194,100,194s94-42.084,94-93.999
	C194,48.084,151.914,6,100,6z M60.14,57.126c6.921,0,12.534,5.608,12.534,12.533c0,6.921-5.612,12.533-12.534,12.533
	c-6.924,0-12.533-5.612-12.533-12.533C47.607,62.735,53.216,57.126,60.14,57.126z M60.059,144.86
	c-6.923,0-12.533-5.608-12.533-12.533c0-6.918,5.61-12.533,12.533-12.533c6.923,0,12.533,5.615,12.533,12.533
	C72.592,139.252,66.982,144.86,60.059,144.86z M94,157.833H81v-50H47v-13h47V157.833z M122,157.833h-13v-125h13V157.833z
	 M141.643,144.86c-6.925,0-12.535-5.608-12.535-12.533c0-6.918,5.61-12.533,12.535-12.533c6.921,0,12.533,5.615,12.533,12.533
	C154.176,139.252,148.563,144.86,141.643,144.86z M141.644,82.19c-6.925,0-12.533-5.612-12.533-12.533
	c0-6.925,5.608-12.53,12.533-12.53c6.922,0,12.533,5.605,12.533,12.53C154.177,76.578,148.565,82.19,141.644,82.19z"/>
</svg>
